<?xml version="1.0" encoding="UTF-8" standalone="no"?>
<svg
   xmlns:dc="http://purl.org/dc/elements/1.1/"
   xmlns:cc="http://creativecommons.org/ns#"
   xmlns:rdf="http://www.w3.org/1999/02/22-rdf-syntax-ns#"
   xmlns:svg="http://www.w3.org/2000/svg"
   xmlns="http://www.w3.org/2000/svg"
   xmlns:xlink="http://www.w3.org/1999/xlink"
   id="svg161"
   version="1.1"
   viewBox="0 0 21.4387 52.0867"
   height="52.0867mm"
   width="21.4387mm">
  <defs
     id="defs155">
    <linearGradient
       y2="1357.7"
       x2="25090.961"
       y1="5373.5601"
       x1="25126.33"
       gradientUnits="userSpaceOnUse"
       id="id0">
      <stop
         id="stop116"
         style="stop-opacity:1; stop-color:black"
         offset="0" />
      <stop
         id="stop118"
         style="stop-opacity:1; stop-color:black"
         offset="1" />
    </linearGradient>
    <linearGradient
       y2="1357.7"
       x2="25090.961"
       y1="5373.5601"
       x1="25126.33"
       xlink:href="#id0"
       gradientUnits="userSpaceOnUse"
       id="id1" />
    <linearGradient
       y2="1357.7"
       x2="25091.529"
       y1="5373.5601"
       x1="25126.99"
       xlink:href="#id0"
       gradientUnits="userSpaceOnUse"
       id="id3" />
  </defs>
  <metadata
     id="metadata158">
    <rdf:RDF>
      <cc:Work
         rdf:about="">
        <dc:format>image/svg+xml</dc:format>
        <dc:type
           rdf:resource="http://purl.org/dc/dcmitype/StillImage" />
        <dc:title></dc:title>
      </cc:Work>
    </rdf:RDF>
  </metadata>
  <g
     transform="translate(-53.5366,-43.414983)"
     id="layer1">
    <g
       id="layer1-2"
       style="clip-rule:evenodd;fill-rule:evenodd;image-rendering:optimizeQuality;shape-rendering:geometricPrecision;text-rendering:geometricPrecision"
       transform="matrix(0.01,0,0,0.01,-187.0661,36.123483)">
      <g
         id="g4359">
        <g
           id="rect4269">
          <path
             id="path131"
             d="m 24865.24,747.09 c 14.07,-14.02 41.69,-17.94 41.69,-17.94 l 443.46,0.95 c 0,0 30.67,1.32 46.88,21.34 19.88,24.56 18.51,51.57 18.51,51.57 v 2358.62 c 0,0 -8.45,21.7 -22.74,35.98 -15.63,15.62 -43.59,24.62 -43.59,24.62 l -442.51,0.95 c 0,0 -23,-6.66 -36.95,-20.83 -13.96,-14.17 -22.74,-39.77 -22.74,-39.77 V 800.93 c 0,0 1.03,-36.91 18,-53.83 z"
             class="fil2" />
          <path
             id="path133"
             d="m 24865.24,747.09 c 14.07,-14.02 41.69,-17.94 41.69,-17.94 l 443.46,0.95 c 0,0 30.67,1.32 46.88,21.34 19.88,24.56 18.51,51.57 18.51,51.57 v 2358.62 c 0,0 -8.45,21.7 -22.74,35.98 -15.63,15.62 -43.59,24.62 -43.59,24.62 l -442.51,0.95 c 0,0 -23,-6.66 -36.95,-20.83 -13.96,-14.17 -22.74,-39.77 -22.74,-39.77 V 800.93 c 0,0 1.03,-36.91 18,-53.83 z"
             class="fil3 str1" />
        </g>
        <g
           id="rect4269-2">
          <path
             id="path136"
             d="m 24865.67,3461.73 c 14.07,-14.02 41.69,-17.94 41.69,-17.94 l 443.46,0.95 c 0,0 30.67,1.32 46.88,21.34 19.88,24.56 18.51,51.57 18.51,51.57 v 2358.62 c 0,0 -8.45,21.7 -22.74,35.98 -15.63,15.62 -43.59,24.62 -43.59,24.62 l -442.51,0.95 c 0,0 -23,-6.66 -36.95,-20.83 -13.96,-14.17 -22.74,-39.77 -22.74,-39.77 V 3515.57 c 0,0 1.03,-36.91 18,-53.83 z"
             class="fil4" />
          <path
             id="path138"
             d="m 24865.67,3461.73 c 14.07,-14.02 41.69,-17.94 41.69,-17.94 l 443.46,0.95 c 0,0 30.67,1.32 46.88,21.34 19.88,24.56 18.51,51.57 18.51,51.57 v 2358.62 c 0,0 -8.45,21.7 -22.74,35.98 -15.63,15.62 -43.59,24.62 -43.59,24.62 l -442.51,0.95 c 0,0 -23,-6.66 -36.95,-20.83 -13.96,-14.17 -22.74,-39.77 -22.74,-39.77 V 3515.57 c 0,0 1.03,-36.91 18,-53.83 z"
             class="fil3 str1" />
        </g>
        <g
           id="rect4318">
          <path
             id="path141"
             d="m 25629.93,1179.86 c 0,0 20.73,36.62 48.89,53.44 47.26,28.22 71.97,28.46 71.97,28.46 l 295.97,0.01 c 0,0 59.97,8.37 105.52,63.9 50.14,61.13 51.86,121.2 51.86,121.2 v 3765 c 0,0 -0.87,74.36 -48.91,121.88 -64.63,63.94 -108.21,61.97 -108.21,61.97 l -296.05,-0.05 c 0,0 -38.2,-0.24 -71.97,25.06 -33.78,25.3 -49.08,50.26 -49.08,50.26 z"
             class="fil5" />
          <path
             id="path143"
             d="m 25629.93,1179.86 c 0,0 20.73,36.62 48.89,53.44 47.26,28.22 71.97,28.46 71.97,28.46 l 295.97,0.01 c 0,0 59.97,8.37 105.52,63.9 50.14,61.13 51.86,121.2 51.86,121.2 v 3765 c 0,0 -0.87,74.36 -48.91,121.88 -64.63,63.94 -108.21,61.97 -108.21,61.97 l -296.05,-0.05 c 0,0 -38.2,-0.24 -71.97,25.06 -33.78,25.3 -49.08,50.26 -49.08,50.26 z"
             class="fil3 str1" />
        </g>
        <g
           id="rect4318-7">
          <path
             id="path146"
             d="m 24634.49,5479.5 c 0,0 -20.73,-36.62 -48.89,-53.44 -47.27,-28.22 -71.97,-28.46 -71.97,-28.46 l -295.97,-0.01 c 0,0 -59.97,-8.37 -105.52,-63.9 -50.14,-61.13 -51.87,-121.2 -51.87,-121.2 v -3765 c 0,0 0.87,-74.36 48.91,-121.88 64.63,-63.94 108.21,-61.97 108.21,-61.97 l 296.05,0.05 c 0,0 38.2,0.24 71.97,-25.06 33.77,-25.3 49.08,-50.26 49.08,-50.26 z"
             class="fil6" />
          <path
             id="path148"
             d="m 24634.49,5479.5 c 0,0 -20.73,-36.62 -48.89,-53.44 -47.27,-28.22 -71.97,-28.46 -71.97,-28.46 l -295.97,-0.01 c 0,0 -59.97,-8.37 -105.52,-63.9 -50.14,-61.13 -51.87,-121.2 -51.87,-121.2 v -3765 c 0,0 0.87,-74.36 48.91,-121.88 64.63,-63.94 108.21,-61.97 108.21,-61.97 l 296.05,0.05 c 0,0 38.2,0.24 71.97,-25.06 33.77,-25.3 49.08,-50.26 49.08,-50.26 z"
             class="fil3 str1" />
        </g>
      </g>
    </g>
  </g>
</svg>
